<svg width="65" height="40" viewBox="0 0 65 40" fill="none" xmlns="http://www.w3.org/2000/svg">
<path d="M64.8276 19.824C64.8177 19.1394 64.7782 18.4645 64.709 17.7995L44.6116 19.9707L64.2545 15.2078C64.0964 14.5428 63.8988 13.8973 63.6715 13.2616L44.6215 19.9707L62.6143 10.8557C62.2981 10.2494 61.9622 9.66259 61.5867 9.09535L44.6017 19.9707L59.9959 6.99266C59.5513 6.47433 59.0869 5.98533 58.5928 5.51589L44.6017 19.9707L56.5574 3.83374C56.0041 3.43276 55.4409 3.06112 54.848 2.71883L44.6017 19.9707L52.4767 1.53545C51.8542 1.27139 51.202 1.04645 50.5499 0.841076L44.6017 19.9707L47.9611 0.234719C47.2893 0.127139 46.6174 0.0488998 45.9257 0L44.6017 19.9707L43.2777 0C42.586 0.0488998 41.9141 0.127139 41.2422 0.234719L44.6017 19.9707L38.6634 0.831296C38.0014 1.02689 37.3591 1.26161 36.7366 1.52567L44.6116 19.9609L34.3652 2.70905C33.7724 3.05134 33.1993 3.42298 32.6559 3.82396L34.0392 5.69193L34.2071 5.51589C34.7012 5.98533 35.1656 6.47433 35.6102 6.99266L35.2347 7.3154L36.7564 9.37897L37.1911 9.09535C37.5666 9.66259 37.9025 10.2494 38.2187 10.8557L37.952 10.9927L36.7564 9.37897L35.2743 10.3276L36.5884 11.687L37.952 10.9927L44.6017 19.9707L39.8095 15.0122C39.8293 15.0807 39.8491 15.1394 39.8589 15.2078L39.1574 15.3741L37.4184 13.9071L35.956 14.4254L33.8317 13.066L32.4089 13.7897L34.6024 14.9046L35.956 14.4254L37.9124 15.6773L36.7169 15.9707L40.3134 17.7995H40.3233C40.3233 17.7995 40.3233 17.7995 40.3233 17.8093L44.6116 19.9804L40.3826 18.4841C40.3925 18.6406 40.4024 18.7971 40.4123 18.9535L44.6017 19.9707L40.432 19.5208C40.432 19.6186 40.4419 19.7262 40.4419 19.824L32.399 19.8826L44.6116 19.9707L32.4089 21.4768L36.0153 21.9169L32.4089 22.7384L35.3138 23.3936L32.4089 24.4694L34.1083 25.0954L36.8651 23.7457L35.3138 23.3936L38.4954 22.22L36.0252 21.9169L44.6116 19.9707L38.5053 22.22L39.7008 22.3667L44.6116 19.9707L40.2344 22.8655C40.2542 22.7286 40.2739 22.5819 40.2937 22.4352L39.7008 22.357L36.875 23.7359L38.3867 24.0782L35.8869 25.7311L37.033 26.1516L39.3155 24.2836L38.3867 24.0685L40.2344 22.846C40.1949 23.11 40.1554 23.3741 40.106 23.6381L39.3254 24.2738L39.9479 24.4108C40.0071 24.1565 40.0565 23.8924 40.106 23.6284L44.6215 19.9413L38.3373 26.6504L39.1772 26.9633C39.1475 27.0513 39.108 27.1394 39.0784 27.2274L44.6116 19.9804L34.632 37.3888C35.2249 37.7213 35.8375 38.0245 36.46 38.2983L44.6116 19.9804L38.9598 39.198C39.6119 39.3839 40.2739 39.5403 40.9557 39.6675L44.6116 19.9804L43.584 39.9707C43.9199 39.9902 44.2658 40 44.6116 40C44.9574 40 45.2933 39.9902 45.6392 39.9707L44.6116 19.9804L48.2675 39.6675C48.9492 39.5403 49.6112 39.3839 50.2634 39.198L44.6116 19.9804L52.7632 38.2983C53.3956 38.0245 53.9983 37.7213 54.5911 37.3888L44.6116 19.9804L56.8044 35.9413C57.3479 35.5306 57.8715 35.1002 58.3755 34.6406L44.6017 19.9707L60.1836 32.7237C60.6184 32.2054 61.0235 31.6577 61.4088 31.1002L44.6017 19.9707L62.7427 28.8215C63.0491 28.2152 63.3158 27.599 63.553 26.9535L44.6017 19.9707L64.3138 24.4401C64.462 23.7848 64.5806 23.1198 64.6695 22.445L44.6017 19.9707L64.8276 19.824ZM37.9124 15.6773L39.1673 15.3741L44.6116 19.9609L37.9124 15.6773ZM34.6617 16.4694L32.4187 15.6773L34.6123 14.9046L36.7169 15.9707L34.6617 16.4694L38.8709 17.956L37.0824 18.1516L32.4089 17.0171L34.6617 16.4694ZM37.4283 13.9169L35.462 12.2543L36.5884 11.6773L38.4163 13.5648L39.276 13.2616C39.4835 13.8289 39.6613 14.4156 39.8095 15.0122L38.4065 13.5648L37.4283 13.9169ZM33.6439 8.64548L35.2743 10.3276L34.0787 11.0905L32.4089 9.69193L33.6439 8.64548ZM30.7884 5.69193L32.4089 7.3643L31.1738 8.64548L29.5928 7.3154L30.7884 5.69193ZM30.7192 25.0954L32.4089 25.9169L30.571 26.8166L28.9506 25.7408L30.7192 25.0954ZM30.8181 31.2567L29.5632 29.9266L28.4072 30.6895L26.8361 28.6357L27.8736 28.1271L26.4804 26.6504L27.7847 26.1712L29.3162 27.423L27.8637 28.1271L29.5434 29.9169L31.1046 28.89L32.3891 29.9462L30.8181 31.2567ZM28.4072 30.6895L29.6027 32.2445L29.0296 32.7139C28.5949 32.1956 28.1898 31.6479 27.8044 31.0905L28.4072 30.6895ZM32.4089 22.7384L29.5039 23.3936L32.4089 24.4597L30.7094 25.0856L27.9625 23.7457L29.5138 23.3936L26.3322 22.22L28.8123 21.9169L32.4089 22.7384ZM26.4409 24.088L24.5932 22.8655C24.5734 22.7286 24.5537 22.5819 24.5339 22.4352L25.1267 22.357L27.9526 23.7359L26.4409 24.088ZM24.7315 23.6577L25.5121 24.2934L26.4409 24.0782L28.9407 25.7311L27.7945 26.1516L25.5121 24.2836L24.8896 24.4205C24.8303 24.1858 24.7809 23.9218 24.7315 23.6577ZM27.7451 18.1418L32.4089 18.6504L24.3956 19.5208C24.3956 19.335 24.4054 19.1394 24.4153 18.9535L27.7451 18.1418ZM31.154 34.2885L32.4089 35.9315C31.8654 35.5208 31.3417 35.0905 30.8378 34.6308L31.154 34.2885ZM37.9816 28.6357L36.4106 30.6895L35.2545 29.9266L34.0095 31.2567L32.4089 29.9462L33.6933 28.89L32.4089 28.0391L34.2566 26.8166L35.4916 27.423L33.6933 28.89L35.2545 29.9169L36.9342 28.1271L37.9816 28.6357ZM29.3656 12.2543L27.3993 13.9169L28.8617 14.4352L26.9053 15.687L25.6504 15.3839L27.3894 13.9169L26.4014 13.5648L24.9983 15.0122C25.1465 14.4156 25.3342 13.8386 25.5319 13.2616L26.3915 13.5648L28.2194 11.6773L26.8559 10.9829L28.0613 9.37897L29.5434 10.3276L31.1738 8.64548L32.4089 9.69193L30.739 11.1002L29.5434 10.3374L28.2293 11.6968L29.3656 12.2543ZM34.0293 5.69193L35.2249 7.3154L33.6439 8.64548L32.4089 7.3643L34.0293 5.69193ZM40.3233 17.7995C40.3431 18.0245 40.3629 18.2494 40.3826 18.4841L38.8709 17.956L40.3233 17.7995ZM37.0726 18.1418L40.4024 18.9535C40.4123 19.1394 40.4221 19.3252 40.4221 19.5208L32.399 18.6504L37.0726 18.1418ZM32.4089 17.0171L27.7451 18.1516L25.9567 17.956L30.1659 16.4694L32.4089 17.0171ZM33.8416 13.0758L32.4187 12.1663L30.9959 13.0758L29.3755 12.2543L30.7489 11.0905L32.4187 12.1565L34.0886 11.0905L35.462 12.2543L33.8416 13.0758ZM30.2153 14.9046L28.8617 14.4254L30.986 13.066L32.4089 13.7897L30.2153 14.9046ZM20.216 19.9707L30.1956 37.379C29.6027 37.7115 28.9901 38.0147 28.3676 38.2885L20.216 19.9707ZM20.216 19.9707L25.7492 27.2176C25.9666 27.7653 26.2037 28.3032 26.4606 28.8215L26.8361 28.6357L25.7492 27.2176C25.7196 27.1296 25.6801 27.0416 25.6504 26.9535L26.4903 26.6406L20.216 19.9707L24.7315 23.6577C24.6821 23.3936 24.6327 23.1296 24.6031 22.8655L20.216 19.9707L25.1366 22.3667L26.3322 22.22L20.216 19.9707L28.8024 21.9169L32.4089 21.4768L20.216 19.9707L32.3891 19.8826L24.3857 19.824C24.3857 19.7262 24.3857 19.6186 24.3956 19.5208L20.216 19.9707L24.4153 18.9535C24.4252 18.7971 24.4351 18.6406 24.445 18.4841L20.216 19.9707L24.5043 17.7995C24.4845 18.0245 24.4647 18.2494 24.445 18.4841L25.9567 17.956L24.5141 17.7995L28.1107 15.9804L30.1659 16.4792L32.4089 15.687L30.2153 14.9144L28.1107 15.9804L26.9152 15.687L20.216 19.9707L25.6603 15.3839L24.9588 15.2176C24.9785 15.1491 24.9884 15.0905 25.0082 15.022L20.216 19.9707L26.8658 10.9927L26.599 10.8557C26.9152 10.2494 27.2511 9.66259 27.6266 9.09535L28.0613 9.37897L29.5928 7.3154L29.2174 6.99266C29.662 6.47433 30.1264 5.98533 30.6204 5.51589L30.7884 5.69193L32.1717 3.82396C31.6184 3.42298 31.0552 3.05134 30.4623 2.70905L20.216 19.9707L28.091 1.52567C27.4685 1.26161 26.8163 1.03667 26.1642 0.831296L20.216 19.9707L23.5755 0.234719C22.9135 0.127139 22.2317 0.0391198 21.54 0L20.216 19.9707L18.892 0C18.2003 0.0488998 17.5284 0.127139 16.8566 0.234719L20.216 19.9707L14.2777 0.831296C13.6157 1.02689 12.9734 1.26161 12.3509 1.52567L20.216 19.9707L9.97956 2.70905C9.38671 3.05134 8.81363 3.42298 8.27019 3.82396L20.216 19.9707L6.23475 5.51589C5.74071 5.98533 5.27632 6.47433 4.83169 6.99266L20.216 19.9707L3.24089 9.09535C2.86542 9.66259 2.52947 10.2494 2.21329 10.8557L20.216 19.9707L1.16593 13.2616C0.938671 13.8973 0.741056 14.5428 0.582964 15.2078L20.216 19.9707L0.118569 17.7995C0.0494037 18.4645 0.00988075 19.1394 0 19.824L20.216 19.9707L0.148211 22.445C0.237138 23.1198 0.355707 23.7848 0.503918 24.4401L20.216 19.9707L1.26474 26.9535C1.50187 27.5892 1.77853 28.2152 2.07496 28.8215L20.216 19.9707L3.40886 31.0905C3.79421 31.6577 4.19932 32.1956 4.63407 32.7139L20.216 19.9707L6.45213 34.6308C6.95605 35.0905 7.47973 35.5306 8.02317 35.9315L20.216 19.9707L10.2365 37.379C10.8293 37.7115 11.4419 38.0147 12.0644 38.2885L20.216 19.9707L14.5642 39.1883C15.2164 39.3741 15.8784 39.5306 16.5601 39.6577L20.216 19.9707L19.1884 39.9609C19.5244 39.9804 19.8702 39.9902 20.216 39.9902C20.5618 39.9902 20.8978 39.9804 21.2436 39.9609L20.216 19.9707L23.8719 39.6577C24.5537 39.5306 25.2157 39.3741 25.8678 39.1883L20.216 19.9707ZM35.8078 32.7237L35.2347 32.2543L36.4303 30.6993L37.0429 31.1002C36.6477 31.6577 36.2426 32.1956 35.8078 32.7237ZM30.571 26.8166L32.4187 28.0391L31.1342 28.89L29.3359 27.423L30.571 26.8166ZM37.033 26.1712L38.3373 26.6504L36.9441 28.1271L35.4916 27.423L37.033 26.1712ZM34.1083 25.0954L35.877 25.7506L34.2566 26.8264L32.4089 25.9169L34.1083 25.0954ZM38.3571 28.8215L37.9816 28.6357L39.0685 27.2176C38.8511 27.7653 38.614 28.3032 38.3571 28.8215ZM33.6637 34.2885L33.9799 34.6308C33.476 35.0905 32.9523 35.5306 32.4089 35.9315L33.6637 34.2885ZM31.154 34.2885L29.5928 32.2445L30.8082 31.2469L32.4089 32.9584L34.0095 31.2567L35.2249 32.2543L33.6637 34.2983L32.4089 32.9584L31.154 34.2885Z" fill="#F8F8EE"/>
</svg>
