<svg width="169" height="129" viewBox="0 0 169 129" fill="none" xmlns="http://www.w3.org/2000/svg">
<path d="M153.272 0.0839844H14.7692C6.63565 0.0839844 0 6.71242 0 14.8532V113.315C0 121.428 6.60611 128.084 14.7692 128.084H153.272C161.385 128.084 168.041 121.478 168.041 113.315V14.8532C168.041 6.73998 161.435 0.0839844 153.272 0.0839844ZM151.232 9.93014L84.3336 76.8292L16.8563 9.93014H151.232ZM9.84615 111.276V16.8451L57.2649 63.8572L9.84615 111.276ZM16.8084 118.238L64.257 70.7892L80.8829 87.2723C82.8075 89.1805 85.9133 89.1743 87.83 87.2572L104.041 71.0462L151.233 118.238H16.8084ZM158.195 111.276L111.003 64.084L158.195 16.892V111.276Z" fill="white"/>
</svg>
