<svg width="103" height="109" viewBox="0 0 103 109" fill="none" xmlns="http://www.w3.org/2000/svg">
<path d="M56.1818 109L56.1818 17.8054C56.1818 14.8636 55.7917 13.625 55.0114 10.9929C54.6212 9.75426 55.0114 9.28978 55.9867 9.13495C56.767 8.98012 57.3523 9.90909 57.7424 10.8381C58.3277 12.3864 59.303 14.0895 59.8883 14.7088L90.5152 43.3523L103 43.3523L56.1818 -1.17156e-06L46.8182 -9.76303e-07L7.82841e-07 43.3523L12.4848 43.3523L43.1117 14.7088C43.697 14.0895 44.6724 12.3864 45.2576 10.8381C45.6477 9.90909 46.233 8.98012 47.0133 9.13495C47.9886 9.28978 48.3788 9.75426 47.9886 10.9929C47.2083 13.625 46.8182 14.8636 46.8182 17.8054L46.8182 109L56.1818 109Z" fill="#F8F8EE"/>
</svg>
